<svg width="96" height="66" viewBox="0 0 96 66" fill="none" xmlns="http://www.w3.org/2000/svg">
<path d="M1.6167 19.9342L8.14862 19.9124L14.549 39.5926L20.5791 19.8708L27.3089 19.8484L33.5114 39.5293L39.7393 19.8068L46.2713 19.785L37.0612 47.3981L29.9751 47.4217L23.9742 28.8434L18.0988 47.4614L11.0128 47.485L1.6167 19.9342ZM68.0663 47.2944L44.7888 47.3722L44.6958 19.7902L67.9732 19.7125L67.9931 25.6229L51.0497 25.6795L51.067 30.8019L66.0311 30.7519L66.0497 36.2683L51.0856 36.3182L51.1029 41.4406L68.0463 41.384L68.0663 47.2944ZM84.3113 47.2401L67.6846 47.2957L67.5916 19.7138L83.4266 19.6609C86.6199 19.6502 88.9312 20.2466 90.3604 21.4503C91.816 22.6275 92.5481 24.5164 92.5569 27.1169C92.5661 29.8226 91.7544 31.7693 90.1221 32.9568C92.29 34.0792 93.3795 36.2689 93.3905 39.5262C93.3996 42.2056 92.6804 44.165 91.233 45.4045C89.8119 46.6176 87.5047 47.2295 84.3113 47.2401ZM73.9987 41.3642L84.2913 41.3298C85.3998 41.3261 86.204 41.1132 86.7041 40.6913C87.204 40.243 87.4524 39.5592 87.4493 38.6398C87.4463 37.7204 87.1932 37.0514 86.6904 36.6328C86.1875 36.2141 85.3819 36.0066 84.2734 36.0104L73.9808 36.0448L73.9987 41.3642ZM73.9621 30.5284L83.2651 30.4973C84.4263 30.4934 85.2702 30.2936 85.7968 29.8978C86.3496 29.5019 86.6246 28.8706 86.6217 28.0037C86.6189 27.163 86.366 26.5466 85.8633 26.1542C85.3605 25.7619 84.5549 25.5676 83.4464 25.5713L73.9455 25.6031L73.9621 30.5284Z" fill="white"/>
<path d="M0.697266 12.5261L3.12002 12.518C3.26756 13.031 3.59412 13.4096 4.09968 13.6535C4.60522 13.8863 5.34029 14.0011 6.3049 13.9978C8.08831 13.9919 8.97868 13.5925 8.97601 12.7999C8.97473 12.4203 8.73814 12.114 8.26627 11.8812C7.79438 11.6483 6.96924 11.4334 5.79085 11.2363C3.90536 10.9077 2.60845 10.4934 1.90011 9.99337C1.20297 9.48216 0.852675 8.71858 0.849248 7.70265C0.84522 6.50809 1.24606 5.63035 2.05175 5.06945C2.85742 4.49739 4.10709 4.20852 5.80077 4.20286C7.44959 4.19735 8.68999 4.48348 9.52196 5.06124C10.3539 5.62784 10.8618 6.56952 11.0458 7.88629L8.5725 7.89454C8.45857 7.37021 8.16566 6.9916 7.69377 6.75873C7.23307 6.51466 6.55407 6.39412 5.65675 6.39711C3.9855 6.4027 3.15117 6.79065 3.15377 7.56098C3.15494 7.90706 3.36899 8.18546 3.79594 8.39615C4.23409 8.60681 5.02557 8.81629 6.17035 9.02458C8.12322 9.37531 9.46505 9.80624 10.1958 10.3174C10.9266 10.8284 11.2938 11.5976 11.2972 12.6247C11.3013 13.8304 10.8781 14.7305 10.0277 15.3251C9.17717 15.9085 7.86583 16.2031 6.09363 16.209C4.38873 16.2147 3.10908 15.9287 2.25468 15.351C1.40027 14.7733 0.881133 13.8317 0.697266 12.5261ZM17.0603 6.50974L17.0528 4.29924L28.5777 4.26074L28.5852 6.47124L24.0088 6.48653L24.0409 15.9984L21.6687 16.0063L21.6366 6.49445L17.0603 6.50974ZM35.2622 4.23841L37.6345 4.23048L37.6562 10.6611C37.66 11.7886 37.9264 12.6083 38.4552 13.1201C38.9841 13.6318 39.8263 13.8858 40.9815 13.882C42.1368 13.8781 42.9716 13.6185 43.4858 13.1033C44.0113 12.588 44.2721 11.7665 44.2683 10.6389L44.2466 4.20839L46.6189 4.20046L46.6412 10.8152C46.6474 12.6573 46.2032 13.9985 45.3088 14.8388C44.4143 15.6679 42.9743 16.0859 40.989 16.0925C39.0037 16.0991 37.5554 15.6908 36.644 14.8677C35.7439 14.0335 35.2907 12.6952 35.2846 10.8531L35.2622 4.23841ZM54.0423 15.8981L54.0028 4.1758L59.0166 4.15905C61.1252 4.15201 62.6578 4.61021 63.6144 5.53363C64.5821 6.45703 65.0694 7.94584 65.0763 10.0001C65.0833 12.0542 64.6059 13.5462 63.6445 14.4761C62.6943 15.4059 61.1648 15.8744 59.0561 15.8814L54.0423 15.8981ZM56.4072 13.6797L58.9645 13.6711C60.288 13.6667 61.246 13.3789 61.8386 12.8075C62.4311 12.225 62.7252 11.2918 62.7209 10.008C62.7165 8.72403 62.4162 7.7984 61.8198 7.23102C61.2234 6.65247 60.2634 6.3654 58.9399 6.36983L56.3825 6.37838L56.4072 13.6797ZM72.2379 15.8373L72.1984 4.11501L74.5706 4.10709L74.6101 15.8294L72.2379 15.8373ZM87.7497 3.91234C89.8583 3.9053 91.3909 4.37466 92.3476 5.32043C93.3154 6.26616 93.8028 7.79403 93.8099 9.90403C93.8171 12.0029 93.3398 13.534 92.3785 14.4973C91.4283 15.4495 89.8989 15.929 87.7901 15.9361C85.6702 15.9432 84.132 15.4738 83.1754 14.5281C82.2188 13.5712 81.7369 12.0432 81.7299 9.94442C81.7227 7.83439 82.1942 6.3033 83.1444 5.35117C84.0946 4.39904 85.6297 3.91942 87.7497 3.91234ZM84.9504 7.03652C84.3692 7.64133 84.0808 8.608 84.0853 9.93653C84.0898 11.2651 84.3846 12.2298 84.9699 12.8307C85.5552 13.4316 86.4928 13.73 87.7827 13.7256C89.0726 13.7213 90.0081 13.4167 90.5894 12.812C91.1706 12.2071 91.4589 11.2405 91.4545 9.91191C91.45 8.58339 91.1551 7.61866 90.5699 7.01775C89.9845 6.40567 89.0469 6.10179 87.757 6.10609C86.4671 6.11041 85.5316 6.42055 84.9504 7.03652Z" fill="white"/>
</svg>
