<svg width="329" height="495" viewBox="0 0 329 495" fill="none" xmlns="http://www.w3.org/2000/svg">
<path d="M292 52L288.182 40.8184L277 37L288.182 33.1816L292 22L295.818 33.1816L307 37L295.818 40.8184L292 52Z" fill="url(#paint0_radial_679_39)"/>
<g opacity="0.5">
<path d="M249 0L251.036 5.96353L257 8L251.036 10.0365L249 16L246.964 10.0365L241 8L246.964 5.96353L249 0Z" fill="url(#paint1_radial_679_39)"/>
</g>
<g opacity="0.7">
<path d="M8 338L10.0365 343.964L16 346L10.0365 348.036L8 354L5.96353 348.036L0 346L5.96353 343.964L8 338Z" fill="url(#paint2_radial_679_39)"/>
</g>
<g opacity="0.3">
<path d="M321 479L323.036 484.964L329 487L323.036 489.036L321 495L318.964 489.036L313 487L318.964 484.964L321 479Z" fill="url(#paint3_radial_679_39)"/>
</g>
<defs>
<radialGradient id="paint0_radial_679_39" cx="0" cy="0" r="1" gradientUnits="userSpaceOnUse" gradientTransform="translate(292 37) rotate(-90) scale(15)">
<stop stop-color="#2EECC5"/>
<stop offset="1" stop-color="#0F826A"/>
</radialGradient>
<radialGradient id="paint1_radial_679_39" cx="0" cy="0" r="1" gradientUnits="userSpaceOnUse" gradientTransform="translate(249 8) rotate(90) scale(8)">
<stop stop-color="#2EECC5"/>
<stop offset="1" stop-color="#05725B"/>
</radialGradient>
<radialGradient id="paint2_radial_679_39" cx="0" cy="0" r="1" gradientUnits="userSpaceOnUse" gradientTransform="translate(8 346) rotate(90) scale(8)">
<stop stop-color="#2EECC5"/>
<stop offset="1" stop-color="#05725B"/>
</radialGradient>
<radialGradient id="paint3_radial_679_39" cx="0" cy="0" r="1" gradientUnits="userSpaceOnUse" gradientTransform="translate(321 487) rotate(90) scale(8)">
<stop stop-color="#2EECC5"/>
<stop offset="1" stop-color="#05725B"/>
</radialGradient>
</defs>
</svg>
